<svg width="393" height="848" viewBox="0 0 393 848" fill="none" xmlns="http://www.w3.org/2000/svg">
<path fill-rule="evenodd" clip-rule="evenodd" d="M-92 22.0002C-18.2309 -48.2359 101.105 50.4005 193.5 33.0001C273.554 17.9239 362.298 -35.7166 433.144 -16.0033C504.284 3.7919 392.443 -4.50473 410.5 66.5C426.878 130.903 373.375 291.633 377.5 360.5C382.666 446.735 484.903 578.053 433.144 662C382.477 744.176 482.419 657.456 399.5 708.5C311.604 762.608 90.2289 885.923 0.500027 877C-94.4466 867.558 60.7787 710.854 23.1586 630.308C2.92978 586.997 -30.699 556.424 -53.4518 514.739C-83.2629 460.122 15.091 400.458 12 333.5C7.94543 245.669 -165.969 92.4265 -92 22.0002Z" fill="url(#paint0_linear_724_178)"/>
<defs>
<linearGradient id="paint0_linear_724_178" x1="-60.1615" y1="66.881" x2="505.48" y2="671.119" gradientUnits="userSpaceOnUse">
<stop stop-color="#D485DB"/>
<stop offset="0.55" stop-color="#8B8AC0" stop-opacity="0.4"/>
<stop offset="1" stop-color="white" stop-opacity="0.66"/>
</linearGradient>
</defs>
</svg>
